<svg width="1212" height="628" viewBox="0 0 1212 628" fill="none" xmlns="http://www.w3.org/2000/svg">
<g clip-path="url(#clip0_2803_3877)">
<rect width="1212" height="628" fill="white"/>
<rect width="1212" height="628" fill="#F2F2F2"/>
<path d="M-246.271 495.149C-245.935 493.875 -244.121 492.656 -241.062 491.651C-238.004 490.645 -233.842 489.899 -229.117 489.509C-147.067 482.853 -68.6573 473.528 4.21139 461.762C61.2003 452.48 114.413 441.747 163.046 429.723C165.366 429.152 168.107 428.706 171.106 428.41C174.105 428.115 177.303 427.977 180.513 428.003C183.723 428.03 186.88 428.221 189.799 428.565C192.718 428.91 195.34 429.401 197.513 430.009C250.782 444.701 311.975 457.349 379.22 467.564C439.577 476.744 504.279 483.887 571.727 488.815C576.974 489.204 582.582 489.117 587.611 488.569C624.778 484.483 663.851 479.988 704.354 474.552C774.341 465.066 841.218 454.132 904.327 441.86C908.91 440.929 914.643 440.454 920.476 440.522C926.31 440.589 931.854 441.195 936.094 442.228C974.857 451.299 1015.93 459.695 1059.03 467.36C1103.74 475.328 1150.55 482.483 1199.12 488.774C1203.12 489.316 1206.44 490.136 1208.72 491.14C1210.99 492.144 1212.12 493.292 1211.99 494.454V585.748C1211.95 587.41 1209.35 589 1204.77 590.171C1200.19 591.343 1193.99 592 1187.53 592C187.665 592 -240.711 592 -251.353 592C-264.537 591.796 -257.707 545.904 -246.271 495.149Z" fill="#27A290"/>
<path d="M588.224 488.872C600.259 496.541 622.38 502.725 650.292 506.222C734.998 515.648 845.192 485.621 892.418 462.624C905.739 456.057 916.444 449.124 924.352 441.942C920.474 441.281 915.948 440.954 911.37 441.005C906.793 441.056 902.38 441.482 898.715 442.227C839.185 454.444 776.055 465.315 709.961 474.732C671.731 480.136 635 484.768 599.768 488.709C596.032 489.026 592.061 489.082 588.224 488.872Z" fill="#1C9887"/>
<path d="M180.992 428.293C176.871 427.954 172.464 427.908 168.247 428.16C164.031 428.412 160.165 428.951 157.068 429.721C107.838 441.757 53.9961 452.513 -3.65409 461.828C-63.6637 471.397 -127.429 479.355 -193.92 485.571C-188.273 490.074 -179.026 494.232 -166.759 497.784C-154.491 501.337 -139.468 504.207 -122.63 506.215C-31.913 515.679 86.1 485.531 136.677 462.44C160.326 451.929 175.397 440.316 180.992 428.293Z" fill="#1C9887"/>
<path d="M138 185.633C145.635 200.432 172.2 225.261 217.381 206.185C262.562 187.108 302.514 217.376 316.843 234.894" stroke="#C8D0C2" stroke-width="4" stroke-linecap="round" stroke-dasharray="10 10"/>
<path d="M99.98 146.101C99.98 146.101 121.92 135.478 123.789 136.02L129.882 138.876L117.061 151.612C117.061 151.612 100.952 147.671 99.98 146.101Z" fill="#D96A5F"/>
<path d="M93.3641 144.586C90.1138 143.707 86.6149 143.508 83.2301 144.01C79.8453 144.512 76.698 145.697 74.1147 147.442C65.8543 153.467 84.2066 159.693 85.6643 160.378C98.7139 164.854 112.435 168.087 126.518 170.002C126.518 170.002 139.151 170.944 141.917 170.944H149.056C149.018 169.638 149.501 168.353 150.439 167.261C144.619 163.528 138.363 160.211 131.751 157.351C122.855 153.696 99.1949 145.271 93.3641 144.586Z" fill="#F4F7FB"/>
<path d="M90.5983 148.813C89.0589 147.178 87.7438 145.427 86.6736 143.587C83.8471 143.489 81.0368 143.962 78.5254 144.958C78.5254 144.958 78.9739 149.07 87.2343 151.44L90.5983 148.813Z" fill="#363C54"/>
<path d="M99.9798 156.353C101.549 156.353 102.821 155.445 102.821 154.325C102.821 153.206 101.549 152.298 99.9798 152.298C98.411 152.298 97.1392 153.206 97.1392 154.325C97.1392 155.445 98.411 156.353 99.9798 156.353Z" fill="#363C54"/>
<path d="M109.623 159.208C111.192 159.208 112.464 158.301 112.464 157.181C112.464 156.061 111.192 155.153 109.623 155.153C108.055 155.153 106.783 156.061 106.783 157.181C106.783 158.301 108.055 159.208 109.623 159.208Z" fill="#363C54"/>
<path d="M118.669 162.178C120.031 162.178 121.135 161.385 121.135 160.407C121.135 159.429 120.031 158.637 118.669 158.637C117.306 158.637 116.202 159.429 116.202 160.407C116.202 161.385 117.306 162.178 118.669 162.178Z" fill="#363C54"/>
<path d="M127.714 165.062C129.076 165.062 130.181 164.269 130.181 163.291C130.181 162.313 129.076 161.521 127.714 161.521C126.352 161.521 125.247 162.313 125.247 163.291C125.247 164.269 126.352 165.062 127.714 165.062Z" fill="#363C54"/>
<path d="M149.393 168.603C149.393 168.603 140.983 166.604 138.553 163.719C138.553 163.719 149.766 158.294 150.888 159.093C152.009 159.893 156.382 161.949 156.382 161.949C153.548 163.784 151.179 166 149.393 168.488" fill="#D96A5F"/>
<path opacity="0.3" d="M77.4786 152.27C86.5754 156.956 96.4244 160.728 106.782 163.493C121.135 166.891 145.543 170.289 149.019 169.946V170.775C141.081 170.93 133.141 170.567 125.284 169.689C114.081 168.114 103.103 165.713 92.5043 162.522C78.3756 158.209 74.6753 154.668 74.6753 154.668C75.7563 153.976 76.7006 153.168 77.4786 152.27V152.27Z" fill="#E8B98D"/>
<path d="M104.951 183.711C104.951 183.711 96.84 164.749 97.4754 160.865C103.14 162.738 109.021 164.201 115.043 165.234V182.626L104.951 183.711Z" fill="#D96A5F"/>
<path d="M149.019 170.289C149.022 172.066 149.401 173.831 150.14 175.515L145.505 176.001L141.768 170.804L143.487 170.004L148.869 170.175" fill="#D96A5F"/>
<path d="M6.97774 564.149C7.25647 562.875 8.76393 561.656 11.3048 560.651C13.8458 559.645 17.303 558.899 21.2289 558.509C89.3928 551.853 154.533 542.528 215.071 530.762C262.415 521.48 306.623 510.747 347.025 498.723C348.953 498.152 351.23 497.706 353.721 497.41C356.213 497.115 358.87 496.977 361.536 497.003C364.203 497.03 366.826 497.221 369.251 497.565C371.676 497.91 373.855 498.401 375.66 499.009C419.913 513.701 470.751 526.349 526.616 536.564C576.759 545.744 630.511 552.887 686.545 557.815C690.904 558.204 695.563 558.117 699.741 557.569C730.618 553.483 763.079 548.988 796.727 543.552C854.87 534.066 910.43 523.132 962.859 510.86C966.666 509.929 971.429 509.454 976.275 509.522C981.121 509.589 985.727 510.195 989.25 511.228C1021.45 520.299 1055.57 528.695 1091.38 536.36C1128.52 544.328 1167.41 551.483 1207.77 557.774C1211.09 558.316 1213.85 559.136 1215.74 560.14C1217.63 561.144 1218.57 562.292 1218.45 563.454V654.748C1218.42 656.41 1216.26 658 1212.46 659.171C1208.65 660.343 1203.5 661 1198.13 661C367.478 661 11.5962 661 2.75519 661C-8.19706 660.796 -2.52301 614.904 6.97774 564.149Z" fill="#34B2A0"/>
<path d="M691.648 557.872C702.179 565.541 721.535 571.725 745.958 575.222C820.076 584.648 916.496 554.621 957.818 531.624C969.474 525.057 978.841 518.124 985.76 510.942C982.368 510.281 978.407 509.954 974.402 510.005C970.396 510.056 966.535 510.482 963.328 511.227C911.24 523.444 856.001 534.315 798.169 543.732C764.717 549.136 732.577 553.768 701.749 557.709C698.48 558.026 695.006 558.082 691.648 557.872V557.872Z" fill="#44BCA8"/>
<path d="M361.984 497.293C358.609 496.954 355 496.908 351.546 497.16C348.093 497.412 344.927 497.951 342.391 498.721C302.073 510.757 257.978 521.513 210.765 530.828C161.619 540.397 109.398 548.355 54.9438 554.571C59.5683 559.074 67.1413 563.232 77.1879 566.784C87.2345 570.337 99.5382 573.207 113.327 575.215C187.622 584.679 284.271 554.531 325.691 531.44C345.059 520.929 357.402 509.316 361.984 497.293Z" fill="#44BCA8"/>
</g>
<defs>
<clipPath id="clip0_2803_3877">
<rect width="1212" height="628" fill="white"/>
</clipPath>
</defs>
</svg>
