<svg width="88" height="88" viewBox="0 0 88 88" fill="none" xmlns="http://www.w3.org/2000/svg">
<g clip-path="url(#clip0_104_39685)">
<circle cx="44" cy="44" r="43" stroke="#363C54" stroke-width="2"/>
<circle cx="44" cy="44" r="40" fill="#363C54"/>
<path d="M44 24C44.5522 24 45 23.5212 45 22.9307L45 16.0693C45 15.4788 44.5522 15 44 15C43.4478 15 43 15.4788 43 16.0693L43 22.9307C43 23.5212 43.4477 24 44 24Z" fill="#4E5058"/>
<path d="M44 18C44.5522 18 45 17.5744 45 17.0495L45 10.9505C45 10.4256 44.5522 10 44 10C43.4478 10 43 10.4256 43 10.9505L43 17.0495C43 17.5744 43.4477 18 44 18Z" fill="#4E5058"/>
<path d="M44 14C44.5522 14 45 13.5212 45 12.9307L45 6.06932C45 5.47884 44.5522 5 44 5C43.4478 5 43 5.47884 43 6.06932L43 12.9307C43 13.5212 43.4477 14 44 14Z" fill="#4E5058"/>
<path d="M40.002 27.5131L40.002 23.1876C40.002 22.6364 40.4489 22.1895 41.0001 22.1895L44.9926 22.1895L46.9888 22.1895C47.5327 22.1895 47.9869 22.6435 47.9869 23.1876L47.9869 27.5131C59.316 29.414 67.9492 39.2655 67.9492 51.1348C67.9492 64.3647 57.2243 75.0896 43.9944 75.0896C30.7646 75.0896 20.0397 64.3647 20.0397 51.1348C20.0395 39.2655 28.6729 29.4142 40.002 27.5131Z" fill="#FD5E95"/>
<path d="M40.0033 28.1782L47.9883 28.1782L47.9883 23.1876C47.9883 22.6364 47.5413 22.1895 46.9902 22.1895L41.0014 22.1895C40.4503 22.1895 40.0033 22.6364 40.0033 23.1876L40.0033 28.1782Z" fill="#FD5E95"/>
<path d="M45 22L47 22C47.5522 22 48 22.4478 48 23L48 28L46 28L46 23C46 22.4478 45.5522 22 45 22Z" fill="#D14D7B"/>
<path d="M30.2586 38.7016C24.0567 41.4135 20 45.9103 20 51C20 37.7452 30.7452 27 44 27C38.1606 27 33.0525 31.6934 30.2586 38.7016Z" fill="#FD5E95"/>
<path d="M30.2586 63.2984C33.0524 70.3066 38.1604 75 44 75C30.7452 75 20 64.2548 20 51C20 56.0897 24.0568 60.5866 30.2586 63.2984Z" fill="#B169BF"/>
<path d="M57.7099 63.4101C63.9 60.7034 67.9492 56.215 67.9492 51.1348C67.9492 64.3646 57.2243 75.0895 43.9944 75.0895C49.8229 75.0895 54.9214 70.4051 57.7099 63.4101Z" fill="#FD5E95"/>
<path d="M57.7099 38.8592C54.9214 31.8642 49.8231 27.1797 43.9944 27.1797C57.2243 27.1797 67.9492 37.9046 67.9492 51.1345C67.9492 46.0545 63.9 41.5661 57.7099 38.8592Z" fill="#FD5E95"/>
<path d="M30.2773 38.8594C29.2538 41.427 28.5415 44.3057 28.2189 47.3791C23.205 48.2938 20.038 49.6371 20.038 51.1347C20.038 46.0546 24.0872 41.5662 30.2773 38.8594Z" fill="#FD8EB4"/>
<path d="M59.7684 47.3791C59.4458 44.3059 58.7335 41.427 57.7099 38.8594C63.9 41.5662 67.9492 46.0546 67.9492 51.1346C67.9492 49.6371 64.7822 48.2937 59.7684 47.3791Z" fill="#FD8EB4"/>
<path d="M27.9896 54.6713C28.3047 57.6756 29.0004 60.4899 30 63C23.9544 60.3539 20 55.9662 20 51C20 52.4638 23.0931 53.7772 27.9896 54.6713Z" fill="#FD5E95"/>
<path d="M58 63C58.9996 60.4899 59.6953 57.6759 60.0104 54.6714C64.907 53.7772 68 52.4639 68 51C68 55.9662 64.0454 60.354 58 63Z" fill="#D14D7B"/>
<path d="M28 47C27.8744 48.3033 27.8085 49.639 27.8085 51C27.8085 52.361 27.8744 53.6967 28 55C23.097 54.0258 20 52.595 20 51C20 49.4049 23.0971 47.9741 28 47Z" fill="#B169BF"/>
<path d="M60 55C60.1256 53.6967 60.1915 52.3611 60.1915 51C60.1915 49.639 60.1256 48.3033 60 47C64.903 47.9742 68 49.4049 68 51C68 52.595 64.903 54.0259 60 55Z" fill="#FD5E95"/>
<path d="M30.2806 63.4121C33.1467 64.6653 36.4717 65.5361 40.0669 65.9071C40.9805 71.4987 42.4008 75.0918 43.9961 75.0918C38.1677 75.0915 33.0692 70.4071 30.2806 63.4121Z" fill="#E58FD0"/>
<path d="M40.0669 36.3662C36.4717 36.7371 33.1466 37.6079 30.2806 38.8612C33.0691 31.8662 38.1675 27.1816 43.9961 27.1816C42.4008 27.1815 40.9803 30.7744 40.0669 36.3662Z" fill="#E58FD0"/>
<path d="M58 39C55.0744 37.7124 51.6805 36.8177 48.0107 36.4366C47.0782 30.6916 45.6284 27 44 27C49.9494 27.0001 55.1537 31.8131 58 39Z" fill="#FD8EB4"/>
<path d="M48.0107 65.5634C51.6805 65.1824 55.0745 64.2877 58 63C55.1537 70.1869 49.9495 75 44 75C45.6283 75 47.0782 71.3086 48.0107 65.5634Z" fill="#844A8F"/>
<path d="M28.2217 47.3799C28.5443 44.3067 29.2566 41.4278 30.2802 38.8602C33.1463 37.607 36.4712 36.7362 40.0664 36.3652C39.6013 39.2119 39.2676 42.5765 39.1091 46.2488C34.9951 46.4266 31.2677 46.8242 28.2217 47.3799Z" fill="#FD5E95"/>
<path d="M47.9248 36.3672C51.52 36.738 54.8451 37.6088 57.7111 38.8621C58.7346 41.4298 59.4469 44.3085 59.7695 47.3818C56.7235 46.8262 52.9963 46.4285 48.8821 46.251C48.7235 42.5785 48.3898 39.2138 47.9248 36.3672Z" fill="#FD5E95"/>
<path d="M59.7695 54.8906C59.4469 57.9638 58.7346 60.8427 57.7111 63.4103C54.8449 64.6635 51.52 65.5343 47.9248 65.9053C48.3899 63.0588 48.7236 59.6941 48.8821 56.0217C52.9962 55.844 56.7235 55.4464 59.7695 54.8906Z" fill="#FD5E95"/>
<path d="M39.0302 56.1296C39.1908 59.7971 39.5288 63.1572 40 66C36.3577 65.6297 32.989 64.76 30.0855 63.5084C29.0485 60.9441 28.3269 58.0693 28 55C31.0858 55.5551 34.8621 55.9522 39.0302 56.1296Z" fill="#FD8EB4"/>
<path d="M49.1033 51C49.1033 49.2866 49.0677 47.6142 49 46C53.0834 46.1818 56.7825 46.5886 59.8056 47.1571C59.9331 48.4092 60 49.6925 60 51C60 52.3075 59.9331 53.5908 59.8056 54.8429C56.7825 55.4114 53.0832 55.8184 49 56C49.0677 54.3858 49.1033 52.7137 49.1033 51Z" fill="#844A8F"/>
<path d="M38.8967 51C38.8967 52.7134 38.9323 54.3858 39 56C34.9166 55.8182 31.2175 55.4114 28.1944 54.8429C28.0669 53.5908 28 52.3076 28 51C28 49.6925 28.0669 48.4092 28.1944 47.1571C31.2175 46.5886 34.9168 46.1816 39 46C38.9323 47.6145 38.8967 49.2866 38.8967 51Z" fill="#E58FD0"/>
<path d="M47.9219 36.3644C46.6433 36.2325 45.331 36.1628 43.9926 36.1628C42.6543 36.1628 41.3421 36.2325 40.0634 36.3644C40.977 30.7727 42.3974 27.1797 43.9927 27.1797C45.5878 27.1797 47.0083 30.7726 47.9219 36.3644Z" fill="#FD5E95"/>
<path d="M40.0634 65.9043C41.342 66.0362 42.6543 66.1059 43.9927 66.1059C45.331 66.1059 46.6432 66.0362 47.9219 65.9043C47.0083 71.496 45.5879 75.089 43.9926 75.089C42.3974 75.0889 40.9769 71.4961 40.0634 65.9043Z" fill="#FD5E95"/>
<path d="M44 56.1032C45.7134 56.1032 47.3858 56.0676 49 56C48.8377 59.6414 48.4964 62.9776 48.0205 65.8001C46.7123 65.9309 45.3694 66 44 66C42.6306 66 41.2879 65.9309 39.9795 65.8001C39.5036 62.9777 39.1622 59.6414 39 56C40.6142 56.0676 42.2865 56.1032 44 56.1032Z" fill="#B169BF"/>
<path d="M44 45.8968C42.2866 45.8968 40.6142 45.9324 39 46C39.1623 42.3587 39.5036 39.0224 39.9795 36.1999C41.2877 36.0691 42.6306 36 44 36C45.3694 36 46.7121 36.0691 48.0205 36.1999C48.4964 39.0226 48.8378 42.3587 49 46C47.3857 45.9326 45.7134 45.8968 44 45.8968Z" fill="#FD8EB4"/>
<path d="M39.1043 46.1043C40.685 46.0361 42.3223 46 44 46C45.6777 46 47.3152 46.036 48.8957 46.1043C48.9639 47.685 49 49.3223 49 51C49 52.6777 48.964 54.3152 48.8957 55.8957C47.315 55.9639 45.6777 56 44 56C42.3223 56 40.6848 55.964 39.1043 55.8957C39.0361 54.3149 39 52.6777 39 51C39 49.3223 39.036 47.6851 39.1043 46.1043Z" fill="#FD5E95"/>
<path d="M64.8117 58.4735C66.8392 56.2732 68 53.7215 68 51C68 64.2548 57.2548 75 44 75C45.3724 75 46.7039 74.7376 47.975 74.2501C55.9225 72.2136 62.2788 66.2092 64.8117 58.4735Z" fill="#D14D7B"/>
<path d="M66.036 53.1851C67.2968 52.5177 68 51.7785 68 51C68 53.9133 66.9078 56.6447 65 59C65.5338 57.1456 65.8868 55.1985 66.036 53.1851Z" fill="#B2325E"/>
<path d="M66.0836 51C66.0836 50.3263 66.0542 49.6594 66 49C67.2842 49.6109 68 50.2875 68 51C68 51.7125 67.2839 52.3893 66 53C66.0542 52.3406 66.0836 51.6739 66.0836 51Z" fill="#D14D7B"/>
<path d="M65 44C66.9078 46.0609 68 48.451 68 51C68 50.3189 67.2969 49.6719 66.036 49.0881C65.8868 47.3263 65.5338 45.6226 65 44Z" fill="#FD5E95"/>
<path d="M47.975 27.7499C46.7039 27.2622 45.3726 27 44 27C57.2548 27 68 37.7452 68 51C68 48.2785 66.8392 45.7269 64.8117 43.5266C62.279 35.7909 55.9225 29.7865 47.975 27.7499Z" fill="#D14D7B"/>
<path opacity="0.1" fill-rule="evenodd" clip-rule="evenodd" d="M44 4V84C21.9086 84 4 66.0914 4 44C4 21.9086 21.9086 4 44 4Z" fill="white"/>
<path d="M13.6395 24.1066L18.6626 22.3929L20.0833 16.715C20.1884 16.2947 20.5663 16 21 16C21.4337 16 21.8115 16.2947 21.9167 16.715L23.3374 22.3928L28.3605 24.1065C28.743 24.237 29 24.5962 29 25C29 25.4038 28.7429 25.763 28.3605 25.8935L23.3374 27.6072L21.9167 33.285C21.8116 33.7053 21.4337 34 21 34C20.5663 34 20.1885 33.7053 20.0833 33.285L18.6626 27.6072L13.6395 25.8935C13.257 25.763 13 25.4038 13 25C13 24.5962 13.2571 24.237 13.6395 24.1066Z" fill="#FFE88A"/>
<path d="M62.6396 31.1065L67.6627 29.3929L69.0834 23.715C69.1874 23.2997 69.5716 23 70.0001 23C70.4287 23 70.8129 23.2997 70.9168 23.715L72.3374 29.393L77.3605 31.1067C77.7386 31.2356 78 31.6008 78 31.9999C78 32.3992 77.7386 32.7643 77.3605 32.8935L72.3374 34.6071L70.9167 40.285C70.8128 40.7003 70.4286 41 70 41C69.5714 41 69.1872 40.7003 69.0833 40.285L67.6626 34.6071L62.6395 32.8934C62.257 32.7629 62 32.4038 62 31.9999C62 31.5961 62.2573 31.2371 62.6396 31.1065Z" fill="#FFE88A"/>
<path d="M53.2798 17.6029L55.4774 16.8413L56.099 14.3178C56.1445 14.1332 56.3126 14 56.5001 14C56.6875 14 56.8556 14.1332 56.9011 14.3178L57.5226 16.8413L59.7202 17.603C59.8856 17.6603 60 17.8226 60 18C60 18.1774 59.8856 18.3397 59.7202 18.3971L57.5226 19.1587L56.9011 21.6822C56.8556 21.8668 56.6875 22 56.5 22C56.3125 22 56.1444 21.8668 56.0989 21.6822L55.4774 19.1587L53.2798 18.3971C53.1124 18.3391 53 18.1794 53 18C53 17.8205 53.1125 17.6609 53.2798 17.6029Z" fill="#FFE88A"/>
<path d="M25.6395 69.1065L30.6626 67.3928L32.0833 61.715C32.1884 61.2947 32.5663 61 33 61C33.4337 61 33.8115 61.2947 33.9167 61.715L35.3374 67.3928L40.3605 69.1065C40.743 69.237 41 69.5962 41 70C41 70.4038 40.7429 70.763 40.3605 70.8935L35.3374 72.6072L33.9167 78.285C33.8116 78.7053 33.4337 79 33 79C32.5663 79 32.1885 78.7053 32.0833 78.285L30.6626 72.6072L25.6395 70.8935C25.257 70.763 25 70.4038 25 70C25 69.5961 25.2571 69.237 25.6395 69.1065Z" fill="#FFE88A"/>
</g>
<defs>
<clipPath id="clip0_104_39685">
<rect width="88" height="88" fill="white"/>
</clipPath>
</defs>
</svg>
